<mxfile host="app.diagrams.net" modified="2022-05-12T22:38:01.076Z" agent="5.0 (Windows NT 10.0; Win64; x64) AppleWebKit/537.36 (KHTML, like Gecko) Chrome/99.0.4844.84 Safari/537.36 OPR/85.0.4341.75 (Edition Yx 08)" etag="-sIKUcms2ElUjENLEIBD" version="17.4.6" type="github">
  <diagram id="R2lEEEUBdFMjLlhIrx00" name="Page-1">
    <mxGraphModel dx="2290" dy="1806" grid="1" gridSize="10" guides="1" tooltips="1" connect="1" arrows="1" fold="1" page="1" pageScale="1" pageWidth="850" pageHeight="1100" math="0" shadow="0" extFonts="Permanent Marker^https://fonts.googleapis.com/css?family=Permanent+Marker">
      <root>
        <mxCell id="0" />
        <mxCell id="1" parent="0" />
        <mxCell id="TRPbkctfbiBFx2_AYb6S-198" value="staff" style="swimlane;html=1;fontStyle=0;childLayout=stackLayout;horizontal=1;startSize=26;fillColor=#e0e0e0;horizontalStack=0;resizeParent=1;resizeLast=0;collapsible=1;marginBottom=0;swimlaneFillColor=#ffffff;align=center;rounded=0;shadow=0;comic=0;labelBackgroundColor=none;strokeWidth=1;fontFamily=Verdana;fontSize=14" vertex="1" parent="1">
          <mxGeometry x="-60" y="166" width="250" height="190" as="geometry" />
        </mxCell>
        <mxCell id="TRPbkctfbiBFx2_AYb6S-199" value="staff_id&amp;nbsp;&lt;span style=&quot;font-weight: 400&quot;&gt;&amp;nbsp;int&amp;nbsp;&lt;/span&gt;&lt;span style=&quot;font-weight: 400&quot;&gt;unsigned&amp;nbsp;&lt;/span&gt;&lt;span style=&quot;font-weight: 400&quot;&gt;incrimental&lt;/span&gt;&lt;span style=&quot;font-weight: 400&quot;&gt;&lt;br&gt;&lt;/span&gt;" style="shape=partialRectangle;top=0;left=0;right=0;bottom=1;html=1;align=left;verticalAlign=middle;fillColor=none;spacingLeft=60;spacingRight=4;whiteSpace=wrap;overflow=hidden;rotatable=0;points=[[0,0.5],[1,0.5]];portConstraint=eastwest;dropTarget=0;fontStyle=1;" vertex="1" parent="TRPbkctfbiBFx2_AYb6S-198">
          <mxGeometry y="26" width="250" height="34" as="geometry" />
        </mxCell>
        <mxCell id="TRPbkctfbiBFx2_AYb6S-200" value="PK" style="shape=partialRectangle;fontStyle=1;top=0;left=0;bottom=0;html=1;fillColor=none;align=left;verticalAlign=middle;spacingLeft=4;spacingRight=4;whiteSpace=wrap;overflow=hidden;rotatable=0;points=[];portConstraint=eastwest;part=1;" vertex="1" connectable="0" parent="TRPbkctfbiBFx2_AYb6S-199">
          <mxGeometry width="56" height="34" as="geometry" />
        </mxCell>
        <mxCell id="TRPbkctfbiBFx2_AYb6S-201" value="personal_data_id&amp;nbsp; int&amp;nbsp; unsigned" style="shape=partialRectangle;top=0;left=0;right=0;bottom=0;html=1;align=left;verticalAlign=top;fillColor=none;spacingLeft=60;spacingRight=4;whiteSpace=wrap;overflow=hidden;rotatable=0;points=[[0,0.5],[1,0.5]];portConstraint=eastwest;dropTarget=0;" vertex="1" parent="TRPbkctfbiBFx2_AYb6S-198">
          <mxGeometry y="60" width="250" height="26" as="geometry" />
        </mxCell>
        <mxCell id="TRPbkctfbiBFx2_AYb6S-202" value="FK" style="shape=partialRectangle;top=0;left=0;bottom=0;html=1;fillColor=none;align=left;verticalAlign=top;spacingLeft=4;spacingRight=4;whiteSpace=wrap;overflow=hidden;rotatable=0;points=[];portConstraint=eastwest;part=1;" vertex="1" connectable="0" parent="TRPbkctfbiBFx2_AYb6S-201">
          <mxGeometry width="56" height="26" as="geometry" />
        </mxCell>
        <mxCell id="TRPbkctfbiBFx2_AYb6S-203" value="actice&amp;nbsp; bool" style="shape=partialRectangle;top=0;left=0;right=0;bottom=0;html=1;align=left;verticalAlign=top;fillColor=none;spacingLeft=60;spacingRight=4;whiteSpace=wrap;overflow=hidden;rotatable=0;points=[[0,0.5],[1,0.5]];portConstraint=eastwest;dropTarget=0;" vertex="1" parent="TRPbkctfbiBFx2_AYb6S-198">
          <mxGeometry y="86" width="250" height="26" as="geometry" />
        </mxCell>
        <mxCell id="TRPbkctfbiBFx2_AYb6S-204" value="" style="shape=partialRectangle;top=0;left=0;bottom=0;html=1;fillColor=none;align=left;verticalAlign=top;spacingLeft=4;spacingRight=4;whiteSpace=wrap;overflow=hidden;rotatable=0;points=[];portConstraint=eastwest;part=1;" vertex="1" connectable="0" parent="TRPbkctfbiBFx2_AYb6S-203">
          <mxGeometry width="56" height="26" as="geometry" />
        </mxCell>
        <mxCell id="TRPbkctfbiBFx2_AYb6S-205" value="password varchar(35)" style="shape=partialRectangle;top=0;left=0;right=0;bottom=0;html=1;align=left;verticalAlign=top;fillColor=none;spacingLeft=60;spacingRight=4;whiteSpace=wrap;overflow=hidden;rotatable=0;points=[[0,0.5],[1,0.5]];portConstraint=eastwest;dropTarget=0;" vertex="1" parent="TRPbkctfbiBFx2_AYb6S-198">
          <mxGeometry y="112" width="250" height="26" as="geometry" />
        </mxCell>
        <mxCell id="TRPbkctfbiBFx2_AYb6S-206" value="" style="shape=partialRectangle;top=0;left=0;bottom=0;html=1;fillColor=none;align=left;verticalAlign=top;spacingLeft=4;spacingRight=4;whiteSpace=wrap;overflow=hidden;rotatable=0;points=[];portConstraint=eastwest;part=1;" vertex="1" connectable="0" parent="TRPbkctfbiBFx2_AYb6S-205">
          <mxGeometry width="56" height="26" as="geometry" />
        </mxCell>
        <mxCell id="TRPbkctfbiBFx2_AYb6S-207" value="username varchar(35)" style="shape=partialRectangle;top=0;left=0;right=0;bottom=0;html=1;align=left;verticalAlign=top;fillColor=none;spacingLeft=60;spacingRight=4;whiteSpace=wrap;overflow=hidden;rotatable=0;points=[[0,0.5],[1,0.5]];portConstraint=eastwest;dropTarget=0;" vertex="1" parent="TRPbkctfbiBFx2_AYb6S-198">
          <mxGeometry y="138" width="250" height="26" as="geometry" />
        </mxCell>
        <mxCell id="TRPbkctfbiBFx2_AYb6S-208" value="" style="shape=partialRectangle;top=0;left=0;bottom=0;html=1;fillColor=none;align=left;verticalAlign=top;spacingLeft=4;spacingRight=4;whiteSpace=wrap;overflow=hidden;rotatable=0;points=[];portConstraint=eastwest;part=1;" vertex="1" connectable="0" parent="TRPbkctfbiBFx2_AYb6S-207">
          <mxGeometry width="56" height="26" as="geometry" />
        </mxCell>
        <mxCell id="TRPbkctfbiBFx2_AYb6S-209" value="email varchar(35)" style="shape=partialRectangle;top=0;left=0;right=0;bottom=0;html=1;align=left;verticalAlign=top;fillColor=none;spacingLeft=60;spacingRight=4;whiteSpace=wrap;overflow=hidden;rotatable=0;points=[[0,0.5],[1,0.5]];portConstraint=eastwest;dropTarget=0;" vertex="1" parent="TRPbkctfbiBFx2_AYb6S-198">
          <mxGeometry y="164" width="250" height="26" as="geometry" />
        </mxCell>
        <mxCell id="TRPbkctfbiBFx2_AYb6S-210" value="" style="shape=partialRectangle;top=0;left=0;bottom=0;html=1;fillColor=none;align=left;verticalAlign=top;spacingLeft=4;spacingRight=4;whiteSpace=wrap;overflow=hidden;rotatable=0;points=[];portConstraint=eastwest;part=1;" vertex="1" connectable="0" parent="TRPbkctfbiBFx2_AYb6S-209">
          <mxGeometry width="56" height="26" as="geometry" />
        </mxCell>
        <mxCell id="TRPbkctfbiBFx2_AYb6S-211" value="filial" style="swimlane;html=1;fontStyle=0;childLayout=stackLayout;horizontal=1;startSize=26;fillColor=#E0E0E0;horizontalStack=0;resizeParent=1;resizeLast=0;collapsible=1;marginBottom=0;swimlaneFillColor=default;align=center;rounded=0;shadow=0;comic=0;labelBackgroundColor=none;strokeWidth=1;fontFamily=Verdana;fontSize=14;swimlaneLine=1;strokeColor=default;glass=0;gradientColor=none;" vertex="1" parent="1">
          <mxGeometry x="270" y="-236" width="250" height="166" as="geometry">
            <mxRectangle x="250" y="-96" width="60" height="26" as="alternateBounds" />
          </mxGeometry>
        </mxCell>
        <mxCell id="TRPbkctfbiBFx2_AYb6S-212" value="filial_ID&amp;nbsp;&amp;nbsp;&lt;span style=&quot;font-weight: normal&quot;&gt;int&amp;nbsp;&lt;/span&gt;&lt;span style=&quot;font-weight: 400&quot;&gt;unsigned&amp;nbsp;&lt;/span&gt;&lt;span style=&quot;font-weight: normal&quot;&gt;incrimental&lt;/span&gt;" style="shape=partialRectangle;top=0;left=0;right=0;bottom=1;html=1;align=left;verticalAlign=middle;fillColor=none;spacingLeft=34;spacingRight=4;whiteSpace=wrap;overflow=hidden;rotatable=0;points=[[0,0.5],[1,0.5]];portConstraint=eastwest;dropTarget=0;fontStyle=1;" vertex="1" parent="TRPbkctfbiBFx2_AYb6S-211">
          <mxGeometry y="26" width="250" height="30" as="geometry" />
        </mxCell>
        <mxCell id="TRPbkctfbiBFx2_AYb6S-213" value="&lt;b&gt;PK&lt;/b&gt;" style="shape=partialRectangle;top=0;left=0;bottom=0;html=1;fillColor=none;align=left;verticalAlign=middle;spacingLeft=4;spacingRight=4;whiteSpace=wrap;overflow=hidden;rotatable=0;points=[];portConstraint=eastwest;part=1;" vertex="1" connectable="0" parent="TRPbkctfbiBFx2_AYb6S-212">
          <mxGeometry width="30" height="30" as="geometry" />
        </mxCell>
        <mxCell id="TRPbkctfbiBFx2_AYb6S-214" value="name varchar(55)" style="shape=partialRectangle;top=0;left=0;right=0;bottom=0;html=1;align=left;verticalAlign=top;fillColor=none;spacingLeft=34;spacingRight=4;whiteSpace=wrap;overflow=hidden;rotatable=0;points=[[0,0.5],[1,0.5]];portConstraint=eastwest;dropTarget=0;" vertex="1" parent="TRPbkctfbiBFx2_AYb6S-211">
          <mxGeometry y="56" width="250" height="26" as="geometry" />
        </mxCell>
        <mxCell id="TRPbkctfbiBFx2_AYb6S-215" value="" style="shape=partialRectangle;top=0;left=0;bottom=0;html=1;fillColor=none;align=left;verticalAlign=top;spacingLeft=4;spacingRight=4;whiteSpace=wrap;overflow=hidden;rotatable=0;points=[];portConstraint=eastwest;part=1;" vertex="1" connectable="0" parent="TRPbkctfbiBFx2_AYb6S-214">
          <mxGeometry width="30" height="26" as="geometry" />
        </mxCell>
        <mxCell id="TRPbkctfbiBFx2_AYb6S-216" value="universal_payer_number&amp;nbsp; varchar(16)" style="shape=partialRectangle;top=0;left=0;right=0;bottom=0;html=1;align=left;verticalAlign=top;fillColor=none;spacingLeft=34;spacingRight=4;whiteSpace=wrap;overflow=hidden;rotatable=0;points=[[0,0.5],[1,0.5]];portConstraint=eastwest;dropTarget=0;" vertex="1" parent="TRPbkctfbiBFx2_AYb6S-211">
          <mxGeometry y="82" width="250" height="26" as="geometry" />
        </mxCell>
        <mxCell id="TRPbkctfbiBFx2_AYb6S-217" value="" style="shape=partialRectangle;top=0;left=0;bottom=0;html=1;fillColor=none;align=left;verticalAlign=top;spacingLeft=4;spacingRight=4;whiteSpace=wrap;overflow=hidden;rotatable=0;points=[];portConstraint=eastwest;part=1;" vertex="1" connectable="0" parent="TRPbkctfbiBFx2_AYb6S-216">
          <mxGeometry width="30" height="26" as="geometry" />
        </mxCell>
        <mxCell id="TRPbkctfbiBFx2_AYb6S-218" value="adress_id int unsigned&amp;nbsp;" style="shape=partialRectangle;top=0;left=0;right=0;bottom=0;html=1;align=left;verticalAlign=top;fillColor=none;spacingLeft=34;spacingRight=4;whiteSpace=wrap;overflow=hidden;rotatable=0;points=[[0,0.5],[1,0.5]];portConstraint=eastwest;dropTarget=0;" vertex="1" parent="TRPbkctfbiBFx2_AYb6S-211">
          <mxGeometry y="108" width="250" height="28" as="geometry" />
        </mxCell>
        <mxCell id="TRPbkctfbiBFx2_AYb6S-219" value="&lt;b&gt;FK&lt;/b&gt;" style="shape=partialRectangle;top=0;left=0;bottom=0;html=1;fillColor=none;align=left;verticalAlign=top;spacingLeft=4;spacingRight=4;whiteSpace=wrap;overflow=hidden;rotatable=0;points=[];portConstraint=eastwest;part=1;" vertex="1" connectable="0" parent="TRPbkctfbiBFx2_AYb6S-218">
          <mxGeometry width="30" height="28" as="geometry" />
        </mxCell>
        <mxCell id="TRPbkctfbiBFx2_AYb6S-220" value="active" style="shape=partialRectangle;top=0;left=0;right=0;bottom=0;html=1;align=left;verticalAlign=top;fillColor=none;spacingLeft=34;spacingRight=4;whiteSpace=wrap;overflow=hidden;rotatable=0;points=[[0,0.5],[1,0.5]];portConstraint=eastwest;dropTarget=0;" vertex="1" parent="TRPbkctfbiBFx2_AYb6S-211">
          <mxGeometry y="136" width="250" height="28" as="geometry" />
        </mxCell>
        <mxCell id="TRPbkctfbiBFx2_AYb6S-221" value="" style="shape=partialRectangle;top=0;left=0;bottom=0;html=1;fillColor=none;align=left;verticalAlign=top;spacingLeft=4;spacingRight=4;whiteSpace=wrap;overflow=hidden;rotatable=0;points=[];portConstraint=eastwest;part=1;" vertex="1" connectable="0" parent="TRPbkctfbiBFx2_AYb6S-220">
          <mxGeometry width="30" height="28" as="geometry" />
        </mxCell>
        <mxCell id="TRPbkctfbiBFx2_AYb6S-222" value="personal_data" style="swimlane;html=1;fontStyle=0;childLayout=stackLayout;horizontal=1;startSize=26;fillColor=#e0e0e0;horizontalStack=0;resizeParent=1;resizeLast=0;collapsible=1;marginBottom=0;swimlaneFillColor=#ffffff;align=center;rounded=0;shadow=0;comic=0;labelBackgroundColor=none;strokeWidth=1;fontFamily=Verdana;fontSize=14" vertex="1" parent="1">
          <mxGeometry x="260" y="270" width="250" height="305" as="geometry" />
        </mxCell>
        <mxCell id="TRPbkctfbiBFx2_AYb6S-223" value="personal_data_id&amp;nbsp;&lt;span style=&quot;font-weight: 400 ; font-size: 12px&quot;&gt;int&amp;nbsp;&lt;/span&gt;&lt;span style=&quot;font-weight: 400&quot;&gt;unsigned&amp;nbsp;&lt;/span&gt;" style="shape=partialRectangle;top=0;left=0;right=0;bottom=1;html=1;align=left;verticalAlign=middle;fillColor=none;spacingLeft=40;spacingRight=4;whiteSpace=wrap;overflow=hidden;rotatable=0;points=[[0,0.5],[1,0.5]];portConstraint=eastwest;dropTarget=0;fontStyle=1;fontSize=12;" vertex="1" parent="TRPbkctfbiBFx2_AYb6S-222">
          <mxGeometry y="26" width="250" height="45" as="geometry" />
        </mxCell>
        <mxCell id="TRPbkctfbiBFx2_AYb6S-224" value="&lt;b&gt;PK&lt;/b&gt;" style="shape=partialRectangle;top=0;left=0;bottom=0;html=1;fillColor=none;align=left;verticalAlign=middle;spacingLeft=4;spacingRight=4;whiteSpace=wrap;overflow=hidden;rotatable=0;points=[];portConstraint=eastwest;part=1;" vertex="1" connectable="0" parent="TRPbkctfbiBFx2_AYb6S-223">
          <mxGeometry width="40" height="45" as="geometry" />
        </mxCell>
        <mxCell id="TRPbkctfbiBFx2_AYb6S-225" value="adress_id int unsigned&amp;nbsp;" style="shape=partialRectangle;top=0;left=0;right=0;bottom=0;html=1;align=left;verticalAlign=top;fillColor=none;spacingLeft=40;spacingRight=4;whiteSpace=wrap;overflow=hidden;rotatable=0;points=[[0,0.5],[1,0.5]];portConstraint=eastwest;dropTarget=0;" vertex="1" parent="TRPbkctfbiBFx2_AYb6S-222">
          <mxGeometry y="71" width="250" height="26" as="geometry" />
        </mxCell>
        <mxCell id="TRPbkctfbiBFx2_AYb6S-226" value="FK" style="shape=partialRectangle;top=0;left=0;bottom=0;html=1;fillColor=none;align=left;verticalAlign=top;spacingLeft=4;spacingRight=4;whiteSpace=wrap;overflow=hidden;rotatable=0;points=[];portConstraint=eastwest;part=1;" vertex="1" connectable="0" parent="TRPbkctfbiBFx2_AYb6S-225">
          <mxGeometry width="40" height="26" as="geometry" />
        </mxCell>
        <mxCell id="TRPbkctfbiBFx2_AYb6S-227" value="fisrtName varchar(35)" style="shape=partialRectangle;top=0;left=0;right=0;bottom=0;html=1;align=left;verticalAlign=top;fillColor=none;spacingLeft=40;spacingRight=4;whiteSpace=wrap;overflow=hidden;rotatable=0;points=[[0,0.5],[1,0.5]];portConstraint=eastwest;dropTarget=0;" vertex="1" parent="TRPbkctfbiBFx2_AYb6S-222">
          <mxGeometry y="97" width="250" height="26" as="geometry" />
        </mxCell>
        <mxCell id="TRPbkctfbiBFx2_AYb6S-228" value="" style="shape=partialRectangle;top=0;left=0;bottom=0;html=1;fillColor=none;align=left;verticalAlign=top;spacingLeft=4;spacingRight=4;whiteSpace=wrap;overflow=hidden;rotatable=0;points=[];portConstraint=eastwest;part=1;" vertex="1" connectable="0" parent="TRPbkctfbiBFx2_AYb6S-227">
          <mxGeometry width="40" height="26" as="geometry" />
        </mxCell>
        <mxCell id="TRPbkctfbiBFx2_AYb6S-229" value="secondName varchar(35)" style="shape=partialRectangle;top=0;left=0;right=0;bottom=0;html=1;align=left;verticalAlign=top;fillColor=none;spacingLeft=40;spacingRight=4;whiteSpace=wrap;overflow=hidden;rotatable=0;points=[[0,0.5],[1,0.5]];portConstraint=eastwest;dropTarget=0;" vertex="1" parent="TRPbkctfbiBFx2_AYb6S-222">
          <mxGeometry y="123" width="250" height="26" as="geometry" />
        </mxCell>
        <mxCell id="TRPbkctfbiBFx2_AYb6S-230" value="" style="shape=partialRectangle;top=0;left=0;bottom=0;html=1;fillColor=none;align=left;verticalAlign=top;spacingLeft=4;spacingRight=4;whiteSpace=wrap;overflow=hidden;rotatable=0;points=[];portConstraint=eastwest;part=1;" vertex="1" connectable="0" parent="TRPbkctfbiBFx2_AYb6S-229">
          <mxGeometry width="40" height="26" as="geometry" />
        </mxCell>
        <mxCell id="TRPbkctfbiBFx2_AYb6S-231" value="lastName varchar(35)" style="shape=partialRectangle;top=0;left=0;right=0;bottom=0;html=1;align=left;verticalAlign=top;fillColor=none;spacingLeft=40;spacingRight=4;whiteSpace=wrap;overflow=hidden;rotatable=0;points=[[0,0.5],[1,0.5]];portConstraint=eastwest;dropTarget=0;" vertex="1" parent="TRPbkctfbiBFx2_AYb6S-222">
          <mxGeometry y="149" width="250" height="26" as="geometry" />
        </mxCell>
        <mxCell id="TRPbkctfbiBFx2_AYb6S-232" value="" style="shape=partialRectangle;top=0;left=0;bottom=0;html=1;fillColor=none;align=left;verticalAlign=top;spacingLeft=4;spacingRight=4;whiteSpace=wrap;overflow=hidden;rotatable=0;points=[];portConstraint=eastwest;part=1;" vertex="1" connectable="0" parent="TRPbkctfbiBFx2_AYb6S-231">
          <mxGeometry width="40" height="26" as="geometry" />
        </mxCell>
        <mxCell id="TRPbkctfbiBFx2_AYb6S-233" value="sex varchar(1)" style="shape=partialRectangle;top=0;left=0;right=0;bottom=0;html=1;align=left;verticalAlign=top;fillColor=none;spacingLeft=40;spacingRight=4;whiteSpace=wrap;overflow=hidden;rotatable=0;points=[[0,0.5],[1,0.5]];portConstraint=eastwest;dropTarget=0;" vertex="1" parent="TRPbkctfbiBFx2_AYb6S-222">
          <mxGeometry y="175" width="250" height="26" as="geometry" />
        </mxCell>
        <mxCell id="TRPbkctfbiBFx2_AYb6S-234" value="" style="shape=partialRectangle;top=0;left=0;bottom=0;html=1;fillColor=none;align=left;verticalAlign=top;spacingLeft=4;spacingRight=4;whiteSpace=wrap;overflow=hidden;rotatable=0;points=[];portConstraint=eastwest;part=1;" vertex="1" connectable="0" parent="TRPbkctfbiBFx2_AYb6S-233">
          <mxGeometry width="40" height="26" as="geometry" />
        </mxCell>
        <mxCell id="TRPbkctfbiBFx2_AYb6S-235" value="identif varchar(16)" style="shape=partialRectangle;top=0;left=0;right=0;bottom=0;html=1;align=left;verticalAlign=top;fillColor=none;spacingLeft=40;spacingRight=4;whiteSpace=wrap;overflow=hidden;rotatable=0;points=[[0,0.5],[1,0.5]];portConstraint=eastwest;dropTarget=0;" vertex="1" parent="TRPbkctfbiBFx2_AYb6S-222">
          <mxGeometry y="201" width="250" height="26" as="geometry" />
        </mxCell>
        <mxCell id="TRPbkctfbiBFx2_AYb6S-236" value="" style="shape=partialRectangle;top=0;left=0;bottom=0;html=1;fillColor=none;align=left;verticalAlign=top;spacingLeft=4;spacingRight=4;whiteSpace=wrap;overflow=hidden;rotatable=0;points=[];portConstraint=eastwest;part=1;" vertex="1" connectable="0" parent="TRPbkctfbiBFx2_AYb6S-235">
          <mxGeometry width="40" height="26" as="geometry" />
        </mxCell>
        <mxCell id="TRPbkctfbiBFx2_AYb6S-237" value="paspNum varchar(16)" style="shape=partialRectangle;top=0;left=0;right=0;bottom=0;html=1;align=left;verticalAlign=top;fillColor=none;spacingLeft=40;spacingRight=4;whiteSpace=wrap;overflow=hidden;rotatable=0;points=[[0,0.5],[1,0.5]];portConstraint=eastwest;dropTarget=0;" vertex="1" parent="TRPbkctfbiBFx2_AYb6S-222">
          <mxGeometry y="227" width="250" height="26" as="geometry" />
        </mxCell>
        <mxCell id="TRPbkctfbiBFx2_AYb6S-238" value="" style="shape=partialRectangle;top=0;left=0;bottom=0;html=1;fillColor=none;align=left;verticalAlign=top;spacingLeft=4;spacingRight=4;whiteSpace=wrap;overflow=hidden;rotatable=0;points=[];portConstraint=eastwest;part=1;" vertex="1" connectable="0" parent="TRPbkctfbiBFx2_AYb6S-237">
          <mxGeometry width="40" height="26" as="geometry" />
        </mxCell>
        <mxCell id="TRPbkctfbiBFx2_AYb6S-239" value="phone varchar(13)" style="shape=partialRectangle;top=0;left=0;right=0;bottom=0;html=1;align=left;verticalAlign=top;fillColor=none;spacingLeft=40;spacingRight=4;whiteSpace=wrap;overflow=hidden;rotatable=0;points=[[0,0.5],[1,0.5]];portConstraint=eastwest;dropTarget=0;" vertex="1" parent="TRPbkctfbiBFx2_AYb6S-222">
          <mxGeometry y="253" width="250" height="26" as="geometry" />
        </mxCell>
        <mxCell id="TRPbkctfbiBFx2_AYb6S-240" value="" style="shape=partialRectangle;top=0;left=0;bottom=0;html=1;fillColor=none;align=left;verticalAlign=top;spacingLeft=4;spacingRight=4;whiteSpace=wrap;overflow=hidden;rotatable=0;points=[];portConstraint=eastwest;part=1;" vertex="1" connectable="0" parent="TRPbkctfbiBFx2_AYb6S-239">
          <mxGeometry width="40" height="26" as="geometry" />
        </mxCell>
        <mxCell id="TRPbkctfbiBFx2_AYb6S-241" value="bdate date" style="shape=partialRectangle;top=0;left=0;right=0;bottom=0;html=1;align=left;verticalAlign=top;fillColor=none;spacingLeft=40;spacingRight=4;whiteSpace=wrap;overflow=hidden;rotatable=0;points=[[0,0.5],[1,0.5]];portConstraint=eastwest;dropTarget=0;" vertex="1" parent="TRPbkctfbiBFx2_AYb6S-222">
          <mxGeometry y="279" width="250" height="26" as="geometry" />
        </mxCell>
        <mxCell id="TRPbkctfbiBFx2_AYb6S-242" value="" style="shape=partialRectangle;top=0;left=0;bottom=0;html=1;fillColor=none;align=left;verticalAlign=top;spacingLeft=4;spacingRight=4;whiteSpace=wrap;overflow=hidden;rotatable=0;points=[];portConstraint=eastwest;part=1;" vertex="1" connectable="0" parent="TRPbkctfbiBFx2_AYb6S-241">
          <mxGeometry width="40" height="26" as="geometry" />
        </mxCell>
        <mxCell id="TRPbkctfbiBFx2_AYb6S-243" value="address_by_person" style="swimlane;html=1;fontStyle=0;childLayout=stackLayout;horizontal=1;startSize=26;fillColor=#e0e0e0;horizontalStack=0;resizeParent=1;resizeLast=0;collapsible=1;marginBottom=0;swimlaneFillColor=#ffffff;align=center;rounded=0;shadow=0;comic=0;labelBackgroundColor=none;strokeWidth=1;fontFamily=Verdana;fontSize=14" vertex="1" parent="1">
          <mxGeometry x="270" y="130" width="210" height="116" as="geometry" />
        </mxCell>
        <mxCell id="TRPbkctfbiBFx2_AYb6S-244" value="address_person_id&amp;nbsp;&lt;span style=&quot;font-weight: 400&quot;&gt;int usigned incrimental&lt;/span&gt;" style="shape=partialRectangle;top=0;left=0;right=0;bottom=1;html=1;align=left;verticalAlign=top;fillColor=none;spacingLeft=34;spacingRight=4;whiteSpace=wrap;overflow=hidden;rotatable=0;points=[[0,0.5],[1,0.5]];portConstraint=eastwest;dropTarget=0;fontStyle=1;" vertex="1" parent="TRPbkctfbiBFx2_AYb6S-243">
          <mxGeometry y="26" width="210" height="34" as="geometry" />
        </mxCell>
        <mxCell id="TRPbkctfbiBFx2_AYb6S-245" value="PK" style="shape=partialRectangle;fontStyle=1;top=0;left=0;bottom=0;html=1;fillColor=none;align=left;verticalAlign=middle;spacingLeft=4;spacingRight=4;whiteSpace=wrap;overflow=hidden;rotatable=0;points=[];portConstraint=eastwest;part=1;" vertex="1" connectable="0" parent="TRPbkctfbiBFx2_AYb6S-244">
          <mxGeometry width="30" height="34" as="geometry" />
        </mxCell>
        <mxCell id="TRPbkctfbiBFx2_AYb6S-246" value="building_id int unsigned&amp;nbsp;" style="shape=partialRectangle;top=0;left=0;right=0;bottom=0;html=1;align=left;verticalAlign=top;fillColor=none;spacingLeft=34;spacingRight=4;whiteSpace=wrap;overflow=hidden;rotatable=0;points=[[0,0.5],[1,0.5]];portConstraint=eastwest;dropTarget=0;fontStyle=0;" vertex="1" parent="TRPbkctfbiBFx2_AYb6S-243">
          <mxGeometry y="60" width="210" height="30" as="geometry" />
        </mxCell>
        <mxCell id="TRPbkctfbiBFx2_AYb6S-247" value="" style="shape=partialRectangle;fontStyle=1;top=0;left=0;bottom=0;html=1;fillColor=none;align=left;verticalAlign=middle;spacingLeft=4;spacingRight=4;whiteSpace=wrap;overflow=hidden;rotatable=0;points=[];portConstraint=eastwest;part=1;" vertex="1" connectable="0" parent="TRPbkctfbiBFx2_AYb6S-246">
          <mxGeometry width="30" height="30" as="geometry" />
        </mxCell>
        <mxCell id="TRPbkctfbiBFx2_AYb6S-248" value="flat_number int unsigned&amp;nbsp;" style="shape=partialRectangle;top=0;left=0;right=0;bottom=0;html=1;align=left;verticalAlign=top;fillColor=none;spacingLeft=34;spacingRight=4;whiteSpace=wrap;overflow=hidden;rotatable=0;points=[[0,0.5],[1,0.5]];portConstraint=eastwest;dropTarget=0;" vertex="1" parent="TRPbkctfbiBFx2_AYb6S-243">
          <mxGeometry y="90" width="210" height="26" as="geometry" />
        </mxCell>
        <mxCell id="TRPbkctfbiBFx2_AYb6S-249" value="" style="shape=partialRectangle;top=0;left=0;bottom=0;html=1;fillColor=none;align=left;verticalAlign=top;spacingLeft=4;spacingRight=4;whiteSpace=wrap;overflow=hidden;rotatable=0;points=[];portConstraint=eastwest;part=1;" vertex="1" connectable="0" parent="TRPbkctfbiBFx2_AYb6S-248">
          <mxGeometry width="30" height="26" as="geometry" />
        </mxCell>
        <mxCell id="TRPbkctfbiBFx2_AYb6S-250" value="patient" style="swimlane;html=1;fontStyle=0;childLayout=stackLayout;horizontal=1;startSize=26;fillColor=#e0e0e0;horizontalStack=0;resizeParent=1;resizeLast=0;collapsible=1;marginBottom=0;swimlaneFillColor=#ffffff;align=center;rounded=0;shadow=0;comic=0;labelBackgroundColor=none;strokeWidth=1;fontFamily=Verdana;fontSize=14" vertex="1" parent="1">
          <mxGeometry x="580" y="113" width="230" height="167.5" as="geometry" />
        </mxCell>
        <mxCell id="TRPbkctfbiBFx2_AYb6S-251" value="child_id &lt;span style=&quot;font-weight: 400&quot;&gt;int&amp;nbsp;&lt;/span&gt;&lt;span style=&quot;font-weight: 400&quot;&gt;unsigned&amp;nbsp;&lt;/span&gt;&lt;span style=&quot;font-weight: 400&quot;&gt;incrimental&lt;br&gt;&lt;/span&gt;" style="shape=partialRectangle;top=0;left=0;right=0;bottom=1;html=1;align=left;verticalAlign=middle;fillColor=none;spacingLeft=34;spacingRight=4;whiteSpace=wrap;overflow=hidden;rotatable=0;points=[[0,0.5],[1,0.5]];portConstraint=eastwest;dropTarget=0;fontStyle=1;" vertex="1" parent="TRPbkctfbiBFx2_AYb6S-250">
          <mxGeometry y="26" width="230" height="34" as="geometry" />
        </mxCell>
        <mxCell id="TRPbkctfbiBFx2_AYb6S-252" value="PK" style="shape=partialRectangle;fontStyle=1;top=0;left=0;bottom=0;html=1;fillColor=none;align=left;verticalAlign=middle;spacingLeft=4;spacingRight=4;whiteSpace=wrap;overflow=hidden;rotatable=0;points=[];portConstraint=eastwest;part=1;" vertex="1" connectable="0" parent="TRPbkctfbiBFx2_AYb6S-251">
          <mxGeometry width="30" height="34" as="geometry" />
        </mxCell>
        <mxCell id="TRPbkctfbiBFx2_AYb6S-253" value="personal_data_id&amp;nbsp; int&amp;nbsp; unsigned" style="shape=partialRectangle;top=0;left=0;right=0;bottom=0;html=1;align=left;verticalAlign=top;fillColor=none;spacingLeft=34;spacingRight=4;whiteSpace=wrap;overflow=hidden;rotatable=0;points=[[0,0.5],[1,0.5]];portConstraint=eastwest;dropTarget=0;" vertex="1" parent="TRPbkctfbiBFx2_AYb6S-250">
          <mxGeometry y="60" width="230" height="26" as="geometry" />
        </mxCell>
        <mxCell id="TRPbkctfbiBFx2_AYb6S-254" value="FK" style="shape=partialRectangle;top=0;left=0;bottom=0;html=1;fillColor=none;align=left;verticalAlign=top;spacingLeft=4;spacingRight=4;whiteSpace=wrap;overflow=hidden;rotatable=0;points=[];portConstraint=eastwest;part=1;" vertex="1" connectable="0" parent="TRPbkctfbiBFx2_AYb6S-253">
          <mxGeometry width="30" height="26" as="geometry" />
        </mxCell>
        <mxCell id="TRPbkctfbiBFx2_AYb6S-255" value="date_start&amp;nbsp; date" style="shape=partialRectangle;top=0;left=0;right=0;bottom=0;html=1;align=left;verticalAlign=top;fillColor=none;spacingLeft=34;spacingRight=4;whiteSpace=wrap;overflow=hidden;rotatable=0;points=[[0,0.5],[1,0.5]];portConstraint=eastwest;dropTarget=0;" vertex="1" parent="TRPbkctfbiBFx2_AYb6S-250">
          <mxGeometry y="86" width="230" height="26" as="geometry" />
        </mxCell>
        <mxCell id="TRPbkctfbiBFx2_AYb6S-256" value="" style="shape=partialRectangle;top=0;left=0;bottom=0;html=1;fillColor=none;align=left;verticalAlign=top;spacingLeft=4;spacingRight=4;whiteSpace=wrap;overflow=hidden;rotatable=0;points=[];portConstraint=eastwest;part=1;" vertex="1" connectable="0" parent="TRPbkctfbiBFx2_AYb6S-255">
          <mxGeometry width="30" height="26" as="geometry" />
        </mxCell>
        <mxCell id="TRPbkctfbiBFx2_AYb6S-257" value="date_end&amp;nbsp; &amp;nbsp;date" style="shape=partialRectangle;top=0;left=0;right=0;bottom=0;html=1;align=left;verticalAlign=top;fillColor=none;spacingLeft=34;spacingRight=4;whiteSpace=wrap;overflow=hidden;rotatable=0;points=[[0,0.5],[1,0.5]];portConstraint=eastwest;dropTarget=0;" vertex="1" parent="TRPbkctfbiBFx2_AYb6S-250">
          <mxGeometry y="112" width="230" height="29.5" as="geometry" />
        </mxCell>
        <mxCell id="TRPbkctfbiBFx2_AYb6S-258" value="" style="shape=partialRectangle;top=0;left=0;bottom=0;html=1;fillColor=none;align=left;verticalAlign=top;spacingLeft=4;spacingRight=4;whiteSpace=wrap;overflow=hidden;rotatable=0;points=[];portConstraint=eastwest;part=1;" vertex="1" connectable="0" parent="TRPbkctfbiBFx2_AYb6S-257">
          <mxGeometry width="30" height="29.5" as="geometry" />
        </mxCell>
        <mxCell id="TRPbkctfbiBFx2_AYb6S-259" value="active bool" style="shape=partialRectangle;top=0;left=0;right=0;bottom=0;html=1;align=left;verticalAlign=top;fillColor=none;spacingLeft=34;spacingRight=4;whiteSpace=wrap;overflow=hidden;rotatable=0;points=[[0,0.5],[1,0.5]];portConstraint=eastwest;dropTarget=0;" vertex="1" parent="TRPbkctfbiBFx2_AYb6S-250">
          <mxGeometry y="141.5" width="230" height="26" as="geometry" />
        </mxCell>
        <mxCell id="TRPbkctfbiBFx2_AYb6S-260" value="" style="shape=partialRectangle;top=0;left=0;bottom=0;html=1;fillColor=none;align=left;verticalAlign=top;spacingLeft=4;spacingRight=4;whiteSpace=wrap;overflow=hidden;rotatable=0;points=[];portConstraint=eastwest;part=1;" vertex="1" connectable="0" parent="TRPbkctfbiBFx2_AYb6S-259">
          <mxGeometry width="30" height="26" as="geometry" />
        </mxCell>
        <mxCell id="TRPbkctfbiBFx2_AYb6S-261" value="position" style="swimlane;html=1;fontStyle=0;childLayout=stackLayout;horizontal=1;startSize=26;fillColor=#e0e0e0;horizontalStack=0;resizeParent=1;resizeLast=0;collapsible=1;marginBottom=0;swimlaneFillColor=#ffffff;align=center;rounded=0;shadow=0;comic=0;labelBackgroundColor=none;strokeWidth=1;fontFamily=Verdana;fontSize=14" vertex="1" parent="1">
          <mxGeometry x="-60" y="-240" width="250" height="144" as="geometry" />
        </mxCell>
        <mxCell id="TRPbkctfbiBFx2_AYb6S-262" value="position_id&amp;nbsp;&lt;span style=&quot;font-weight: 400&quot;&gt;int unsigned incrimental&lt;/span&gt;" style="shape=partialRectangle;top=0;left=0;right=0;bottom=1;html=1;align=left;verticalAlign=middle;fillColor=none;spacingLeft=34;spacingRight=4;whiteSpace=wrap;overflow=hidden;rotatable=0;points=[[0,0.5],[1,0.5]];portConstraint=eastwest;dropTarget=0;fontStyle=1;" vertex="1" parent="TRPbkctfbiBFx2_AYb6S-261">
          <mxGeometry y="26" width="250" height="30" as="geometry" />
        </mxCell>
        <mxCell id="TRPbkctfbiBFx2_AYb6S-263" value="PK" style="shape=partialRectangle;top=0;left=0;bottom=0;html=1;fillColor=none;align=left;verticalAlign=middle;spacingLeft=4;spacingRight=4;whiteSpace=wrap;overflow=hidden;rotatable=0;points=[];portConstraint=eastwest;part=1;" vertex="1" connectable="0" parent="TRPbkctfbiBFx2_AYb6S-262">
          <mxGeometry width="30" height="30" as="geometry" />
        </mxCell>
        <mxCell id="TRPbkctfbiBFx2_AYb6S-264" value="name varchar(255)" style="shape=partialRectangle;top=0;left=0;right=0;bottom=0;html=1;align=left;verticalAlign=top;fillColor=none;spacingLeft=34;spacingRight=4;whiteSpace=wrap;overflow=hidden;rotatable=0;points=[[0,0.5],[1,0.5]];portConstraint=eastwest;dropTarget=0;" vertex="1" parent="TRPbkctfbiBFx2_AYb6S-261">
          <mxGeometry y="56" width="250" height="26" as="geometry" />
        </mxCell>
        <mxCell id="TRPbkctfbiBFx2_AYb6S-265" value="" style="shape=partialRectangle;top=0;left=0;bottom=0;html=1;fillColor=none;align=left;verticalAlign=top;spacingLeft=4;spacingRight=4;whiteSpace=wrap;overflow=hidden;rotatable=0;points=[];portConstraint=eastwest;part=1;" vertex="1" connectable="0" parent="TRPbkctfbiBFx2_AYb6S-264">
          <mxGeometry width="30" height="26" as="geometry" />
        </mxCell>
        <mxCell id="TRPbkctfbiBFx2_AYb6S-266" value="salary decimal(10,2)" style="shape=partialRectangle;top=0;left=0;right=0;bottom=0;html=1;align=left;verticalAlign=top;fillColor=none;spacingLeft=34;spacingRight=4;whiteSpace=wrap;overflow=hidden;rotatable=0;points=[[0,0.5],[1,0.5]];portConstraint=eastwest;dropTarget=0;" vertex="1" parent="TRPbkctfbiBFx2_AYb6S-261">
          <mxGeometry y="82" width="250" height="26" as="geometry" />
        </mxCell>
        <mxCell id="TRPbkctfbiBFx2_AYb6S-267" value="" style="shape=partialRectangle;top=0;left=0;bottom=0;html=1;fillColor=none;align=left;verticalAlign=top;spacingLeft=4;spacingRight=4;whiteSpace=wrap;overflow=hidden;rotatable=0;points=[];portConstraint=eastwest;part=1;" vertex="1" connectable="0" parent="TRPbkctfbiBFx2_AYb6S-266">
          <mxGeometry width="30" height="26" as="geometry" />
        </mxCell>
        <mxCell id="TRPbkctfbiBFx2_AYb6S-268" value="active&amp;nbsp; bool" style="shape=partialRectangle;top=0;left=0;right=0;bottom=0;html=1;align=left;verticalAlign=top;fillColor=none;spacingLeft=34;spacingRight=4;whiteSpace=wrap;overflow=hidden;rotatable=0;points=[[0,0.5],[1,0.5]];portConstraint=eastwest;dropTarget=0;" vertex="1" parent="TRPbkctfbiBFx2_AYb6S-261">
          <mxGeometry y="108" width="250" height="26" as="geometry" />
        </mxCell>
        <mxCell id="TRPbkctfbiBFx2_AYb6S-269" value="" style="shape=partialRectangle;top=0;left=0;bottom=0;html=1;fillColor=none;align=left;verticalAlign=top;spacingLeft=4;spacingRight=4;whiteSpace=wrap;overflow=hidden;rotatable=0;points=[];portConstraint=eastwest;part=1;" vertex="1" connectable="0" parent="TRPbkctfbiBFx2_AYb6S-268">
          <mxGeometry width="30" height="26" as="geometry" />
        </mxCell>
        <mxCell id="TRPbkctfbiBFx2_AYb6S-270" value="" style="shape=partialRectangle;top=0;left=0;right=0;bottom=0;html=1;align=left;verticalAlign=top;fillColor=none;spacingLeft=34;spacingRight=4;whiteSpace=wrap;overflow=hidden;rotatable=0;points=[[0,0.5],[1,0.5]];portConstraint=eastwest;dropTarget=0;" vertex="1" parent="TRPbkctfbiBFx2_AYb6S-261">
          <mxGeometry y="134" width="250" height="10" as="geometry" />
        </mxCell>
        <mxCell id="TRPbkctfbiBFx2_AYb6S-271" value="" style="shape=partialRectangle;top=0;left=0;bottom=0;html=1;fillColor=none;align=left;verticalAlign=top;spacingLeft=4;spacingRight=4;whiteSpace=wrap;overflow=hidden;rotatable=0;points=[];portConstraint=eastwest;part=1;" vertex="1" connectable="0" parent="TRPbkctfbiBFx2_AYb6S-270">
          <mxGeometry width="30" height="10" as="geometry" />
        </mxCell>
        <mxCell id="TRPbkctfbiBFx2_AYb6S-272" value="" style="edgeStyle=elbowEdgeStyle;fontSize=12;html=1;endArrow=ERoneToMany;startArrow=ERmandOne;rounded=0;" edge="1" parent="1" source="TRPbkctfbiBFx2_AYb6S-212">
          <mxGeometry width="100" height="100" relative="1" as="geometry">
            <mxPoint x="150" y="290" as="sourcePoint" />
            <mxPoint x="190" y="64" as="targetPoint" />
            <Array as="points">
              <mxPoint x="240" y="100" />
            </Array>
          </mxGeometry>
        </mxCell>
        <mxCell id="TRPbkctfbiBFx2_AYb6S-273" value="" style="edgeStyle=elbowEdgeStyle;fontSize=12;html=1;endArrow=ERoneToMany;startArrow=ERmandOne;rounded=0;" edge="1" parent="1" source="TRPbkctfbiBFx2_AYb6S-262" target="TRPbkctfbiBFx2_AYb6S-381">
          <mxGeometry width="100" height="100" relative="1" as="geometry">
            <mxPoint x="-10" y="181" as="sourcePoint" />
            <mxPoint x="-20" y="110" as="targetPoint" />
            <Array as="points">
              <mxPoint x="220" y="-90" />
            </Array>
          </mxGeometry>
        </mxCell>
        <mxCell id="TRPbkctfbiBFx2_AYb6S-274" value="" style="edgeStyle=elbowEdgeStyle;fontSize=12;html=1;endArrow=ERmandOne;startArrow=ERmandOne;rounded=0;entryX=1;entryY=0.5;entryDx=0;entryDy=0;" edge="1" parent="1" target="TRPbkctfbiBFx2_AYb6S-201">
          <mxGeometry width="100" height="100" relative="1" as="geometry">
            <mxPoint x="260" y="320" as="sourcePoint" />
            <mxPoint x="200" y="190" as="targetPoint" />
            <Array as="points">
              <mxPoint x="210" y="290" />
            </Array>
          </mxGeometry>
        </mxCell>
        <mxCell id="TRPbkctfbiBFx2_AYb6S-275" value="building" style="swimlane;html=1;fontStyle=0;childLayout=stackLayout;horizontal=1;startSize=26;fillColor=#e0e0e0;horizontalStack=0;resizeParent=1;resizeLast=0;collapsible=1;marginBottom=0;swimlaneFillColor=#ffffff;align=center;rounded=0;shadow=0;comic=0;labelBackgroundColor=none;strokeWidth=1;fontFamily=Verdana;fontSize=14" vertex="1" parent="1">
          <mxGeometry x="260" y="-50" width="230" height="164" as="geometry" />
        </mxCell>
        <mxCell id="TRPbkctfbiBFx2_AYb6S-276" value="building_id&amp;nbsp;&lt;span style=&quot;font-weight: 400&quot;&gt;int usigned incrimental&lt;/span&gt;" style="shape=partialRectangle;top=0;left=0;right=0;bottom=1;html=1;align=left;verticalAlign=middle;fillColor=none;spacingLeft=60;spacingRight=4;whiteSpace=wrap;overflow=hidden;rotatable=0;points=[[0,0.5],[1,0.5]];portConstraint=eastwest;dropTarget=0;fontStyle=1;" vertex="1" parent="TRPbkctfbiBFx2_AYb6S-275">
          <mxGeometry y="26" width="230" height="30" as="geometry" />
        </mxCell>
        <mxCell id="TRPbkctfbiBFx2_AYb6S-277" value="PK" style="shape=partialRectangle;fontStyle=1;top=0;left=0;bottom=0;html=1;fillColor=none;align=left;verticalAlign=middle;spacingLeft=4;spacingRight=4;whiteSpace=wrap;overflow=hidden;rotatable=0;points=[];portConstraint=eastwest;part=1;" vertex="1" connectable="0" parent="TRPbkctfbiBFx2_AYb6S-276">
          <mxGeometry width="60" height="30" as="geometry" />
        </mxCell>
        <mxCell id="TRPbkctfbiBFx2_AYb6S-278" value="&lt;span style=&quot;font-family: &amp;#34;verdana&amp;#34; ; text-align: center&quot;&gt;&lt;font style=&quot;font-size: 12px&quot;&gt;street_by_district_id&amp;nbsp;&lt;/font&gt;&lt;/span&gt;int usigned" style="shape=partialRectangle;top=0;left=0;right=0;bottom=0;html=1;align=left;verticalAlign=middle;fillColor=none;spacingLeft=60;spacingRight=4;whiteSpace=wrap;overflow=hidden;rotatable=0;points=[[0,0.5],[1,0.5]];portConstraint=eastwest;dropTarget=0;fontStyle=0;" vertex="1" parent="TRPbkctfbiBFx2_AYb6S-275">
          <mxGeometry y="56" width="230" height="30" as="geometry" />
        </mxCell>
        <mxCell id="TRPbkctfbiBFx2_AYb6S-279" value="&lt;span style=&quot;font-weight: normal&quot;&gt;FK&lt;/span&gt;" style="shape=partialRectangle;fontStyle=1;top=0;left=0;bottom=0;html=1;fillColor=none;align=left;verticalAlign=middle;spacingLeft=4;spacingRight=4;whiteSpace=wrap;overflow=hidden;rotatable=0;points=[];portConstraint=eastwest;part=1;" vertex="1" connectable="0" parent="TRPbkctfbiBFx2_AYb6S-278">
          <mxGeometry width="60" height="30" as="geometry" />
        </mxCell>
        <mxCell id="TRPbkctfbiBFx2_AYb6S-280" value="building_number varchar(6)" style="shape=partialRectangle;top=0;left=0;right=0;bottom=0;html=1;align=left;verticalAlign=top;fillColor=none;spacingLeft=60;spacingRight=4;whiteSpace=wrap;overflow=hidden;rotatable=0;points=[[0,0.5],[1,0.5]];portConstraint=eastwest;dropTarget=0;" vertex="1" parent="TRPbkctfbiBFx2_AYb6S-275">
          <mxGeometry y="86" width="230" height="26" as="geometry" />
        </mxCell>
        <mxCell id="TRPbkctfbiBFx2_AYb6S-281" value="" style="shape=partialRectangle;top=0;left=0;bottom=0;html=1;fillColor=none;align=left;verticalAlign=top;spacingLeft=4;spacingRight=4;whiteSpace=wrap;overflow=hidden;rotatable=0;points=[];portConstraint=eastwest;part=1;" vertex="1" connectable="0" parent="TRPbkctfbiBFx2_AYb6S-280">
          <mxGeometry width="60" height="26" as="geometry" />
        </mxCell>
        <mxCell id="TRPbkctfbiBFx2_AYb6S-282" value="latitude varchar(15)" style="shape=partialRectangle;top=0;left=0;right=0;bottom=0;html=1;align=left;verticalAlign=top;fillColor=none;spacingLeft=60;spacingRight=4;whiteSpace=wrap;overflow=hidden;rotatable=0;points=[[0,0.5],[1,0.5]];portConstraint=eastwest;dropTarget=0;" vertex="1" parent="TRPbkctfbiBFx2_AYb6S-275">
          <mxGeometry y="112" width="230" height="26" as="geometry" />
        </mxCell>
        <mxCell id="TRPbkctfbiBFx2_AYb6S-283" value="" style="shape=partialRectangle;top=0;left=0;bottom=0;html=1;fillColor=none;align=left;verticalAlign=top;spacingLeft=4;spacingRight=4;whiteSpace=wrap;overflow=hidden;rotatable=0;points=[];portConstraint=eastwest;part=1;" vertex="1" connectable="0" parent="TRPbkctfbiBFx2_AYb6S-282">
          <mxGeometry width="60" height="26" as="geometry" />
        </mxCell>
        <mxCell id="TRPbkctfbiBFx2_AYb6S-284" value="longitude varchar(15)" style="shape=partialRectangle;top=0;left=0;right=0;bottom=0;html=1;align=left;verticalAlign=top;fillColor=none;spacingLeft=60;spacingRight=4;whiteSpace=wrap;overflow=hidden;rotatable=0;points=[[0,0.5],[1,0.5]];portConstraint=eastwest;dropTarget=0;" vertex="1" parent="TRPbkctfbiBFx2_AYb6S-275">
          <mxGeometry y="138" width="230" height="26" as="geometry" />
        </mxCell>
        <mxCell id="TRPbkctfbiBFx2_AYb6S-285" value="" style="shape=partialRectangle;top=0;left=0;bottom=0;html=1;fillColor=none;align=left;verticalAlign=top;spacingLeft=4;spacingRight=4;whiteSpace=wrap;overflow=hidden;rotatable=0;points=[];portConstraint=eastwest;part=1;" vertex="1" connectable="0" parent="TRPbkctfbiBFx2_AYb6S-284">
          <mxGeometry width="60" height="26" as="geometry" />
        </mxCell>
        <mxCell id="TRPbkctfbiBFx2_AYb6S-287" value="" style="edgeStyle=orthogonalEdgeStyle;fontSize=12;html=1;endArrow=ERoneToMany;startArrow=ERmandOne;rounded=0;exitX=0;exitY=0.5;exitDx=0;exitDy=0;entryX=1;entryY=0.467;entryDx=0;entryDy=0;entryPerimeter=0;" edge="1" parent="1" source="TRPbkctfbiBFx2_AYb6S-342" target="TRPbkctfbiBFx2_AYb6S-358">
          <mxGeometry width="100" height="100" relative="1" as="geometry">
            <mxPoint x="890" y="-195" as="sourcePoint" />
            <mxPoint x="800" y="34" as="targetPoint" />
            <Array as="points">
              <mxPoint x="830" y="-191" />
              <mxPoint x="830" y="30" />
            </Array>
          </mxGeometry>
        </mxCell>
        <mxCell id="TRPbkctfbiBFx2_AYb6S-288" value="" style="edgeStyle=orthogonalEdgeStyle;fontSize=12;html=1;endArrow=ERoneToMany;startArrow=ERmandOne;rounded=0;exitX=0;exitY=0.5;exitDx=0;exitDy=0;entryX=1;entryY=0.5;entryDx=0;entryDy=0;" edge="1" parent="1" target="TRPbkctfbiBFx2_AYb6S-278">
          <mxGeometry width="100" height="100" relative="1" as="geometry">
            <mxPoint x="580" y="4" as="sourcePoint" />
            <mxPoint x="780" y="105" as="targetPoint" />
          </mxGeometry>
        </mxCell>
        <mxCell id="TRPbkctfbiBFx2_AYb6S-289" value="" style="edgeStyle=orthogonalEdgeStyle;fontSize=12;html=1;endArrow=ERoneToMany;startArrow=ERmandOne;rounded=0;entryX=1;entryY=0.5;entryDx=0;entryDy=0;elbow=vertical;exitX=1;exitY=0.467;exitDx=0;exitDy=0;exitPerimeter=0;" edge="1" parent="1" source="TRPbkctfbiBFx2_AYb6S-276" target="TRPbkctfbiBFx2_AYb6S-246">
          <mxGeometry width="100" height="100" relative="1" as="geometry">
            <mxPoint x="480" y="-10" as="sourcePoint" />
            <mxPoint x="470" y="180" as="targetPoint" />
            <Array as="points">
              <mxPoint x="510" y="-10" />
              <mxPoint x="510" y="205" />
            </Array>
          </mxGeometry>
        </mxCell>
        <mxCell id="TRPbkctfbiBFx2_AYb6S-295" value="" style="edgeStyle=orthogonalEdgeStyle;fontSize=12;html=1;endArrow=ERoneToMany;startArrow=ERmandOne;rounded=0;exitX=-0.005;exitY=0.789;exitDx=0;exitDy=0;exitPerimeter=0;entryX=1;entryY=0.5;entryDx=0;entryDy=0;" edge="1" parent="1" source="TRPbkctfbiBFx2_AYb6S-337" target="TRPbkctfbiBFx2_AYb6S-360">
          <mxGeometry width="100" height="100" relative="1" as="geometry">
            <mxPoint x="1110" y="-145" as="sourcePoint" />
            <mxPoint x="1099.9999999999995" y="1" as="targetPoint" />
          </mxGeometry>
        </mxCell>
        <mxCell id="TRPbkctfbiBFx2_AYb6S-304" value="patient_by_staff" style="swimlane;html=1;fontStyle=0;childLayout=stackLayout;horizontal=1;startSize=26;fillColor=#e0e0e0;horizontalStack=0;resizeParent=1;resizeLast=0;collapsible=1;marginBottom=0;swimlaneFillColor=#ffffff;align=center;rounded=0;shadow=0;comic=0;labelBackgroundColor=none;strokeWidth=1;fontFamily=Verdana;fontSize=14" vertex="1" parent="1">
          <mxGeometry x="600" y="300" width="230" height="202" as="geometry" />
        </mxCell>
        <mxCell id="TRPbkctfbiBFx2_AYb6S-305" value="&lt;b&gt;group_by_staff_id&amp;nbsp;&lt;/b&gt;&amp;nbsp;int unsigned&amp;nbsp;incrimental" style="shape=partialRectangle;top=0;left=0;right=0;bottom=1;html=1;align=left;verticalAlign=top;fillColor=none;spacingLeft=40;spacingRight=4;whiteSpace=wrap;overflow=hidden;rotatable=0;points=[[0,0.5],[1,0.5]];portConstraint=eastwest;dropTarget=0;fontStyle=0;" vertex="1" parent="TRPbkctfbiBFx2_AYb6S-304">
          <mxGeometry y="26" width="230" height="34" as="geometry" />
        </mxCell>
        <mxCell id="TRPbkctfbiBFx2_AYb6S-306" value="&lt;span style=&quot;&quot;&gt;PK&lt;/span&gt;" style="shape=partialRectangle;fontStyle=1;top=0;left=0;bottom=0;html=1;fillColor=none;align=left;verticalAlign=middle;spacingLeft=4;spacingRight=4;whiteSpace=wrap;overflow=hidden;rotatable=0;points=[];portConstraint=eastwest;part=1;" vertex="1" connectable="0" parent="TRPbkctfbiBFx2_AYb6S-305">
          <mxGeometry width="40" height="34" as="geometry" />
        </mxCell>
        <mxCell id="TRPbkctfbiBFx2_AYb6S-307" value="staff_id&amp;nbsp; int unsigned&amp;nbsp;" style="shape=partialRectangle;top=0;left=0;right=0;bottom=0;html=1;align=left;verticalAlign=top;fillColor=none;spacingLeft=40;spacingRight=4;whiteSpace=wrap;overflow=hidden;rotatable=0;points=[[0,0.5],[1,0.5]];portConstraint=eastwest;dropTarget=0;fontStyle=0;" vertex="1" parent="TRPbkctfbiBFx2_AYb6S-304">
          <mxGeometry y="60" width="230" height="30" as="geometry" />
        </mxCell>
        <mxCell id="TRPbkctfbiBFx2_AYb6S-308" value="&lt;span style=&quot;font-weight: normal&quot;&gt;FK1&lt;/span&gt;" style="shape=partialRectangle;fontStyle=1;top=0;left=0;bottom=0;html=1;fillColor=none;align=left;verticalAlign=middle;spacingLeft=4;spacingRight=4;whiteSpace=wrap;overflow=hidden;rotatable=0;points=[];portConstraint=eastwest;part=1;" vertex="1" connectable="0" parent="TRPbkctfbiBFx2_AYb6S-307">
          <mxGeometry width="40" height="30" as="geometry" />
        </mxCell>
        <mxCell id="TRPbkctfbiBFx2_AYb6S-309" value="&lt;span style=&quot;font-family: &amp;#34;verdana&amp;#34; ; font-size: 14px ; text-align: center&quot;&gt;patient&lt;/span&gt;_id&amp;nbsp; int unsigned&amp;nbsp;" style="shape=partialRectangle;top=0;left=0;right=0;bottom=0;html=1;align=left;verticalAlign=top;fillColor=none;spacingLeft=40;spacingRight=4;whiteSpace=wrap;overflow=hidden;rotatable=0;points=[[0,0.5],[1,0.5]];portConstraint=eastwest;dropTarget=0;fontStyle=0;" vertex="1" parent="TRPbkctfbiBFx2_AYb6S-304">
          <mxGeometry y="90" width="230" height="30" as="geometry" />
        </mxCell>
        <mxCell id="TRPbkctfbiBFx2_AYb6S-310" value="&lt;span style=&quot;&quot;&gt;FK2&lt;/span&gt;" style="shape=partialRectangle;fontStyle=0;top=0;left=0;bottom=0;html=1;fillColor=none;align=left;verticalAlign=middle;spacingLeft=4;spacingRight=4;whiteSpace=wrap;overflow=hidden;rotatable=0;points=[];portConstraint=eastwest;part=1;" vertex="1" connectable="0" parent="TRPbkctfbiBFx2_AYb6S-309">
          <mxGeometry width="40" height="30" as="geometry" />
        </mxCell>
        <mxCell id="TRPbkctfbiBFx2_AYb6S-311" value="date_start&amp;nbsp; date" style="shape=partialRectangle;top=0;left=0;right=0;bottom=0;html=1;align=left;verticalAlign=top;fillColor=none;spacingLeft=40;spacingRight=4;whiteSpace=wrap;overflow=hidden;rotatable=0;points=[[0,0.5],[1,0.5]];portConstraint=eastwest;dropTarget=0;" vertex="1" parent="TRPbkctfbiBFx2_AYb6S-304">
          <mxGeometry y="120" width="230" height="26" as="geometry" />
        </mxCell>
        <mxCell id="TRPbkctfbiBFx2_AYb6S-312" value="" style="shape=partialRectangle;top=0;left=0;bottom=0;html=1;fillColor=none;align=left;verticalAlign=top;spacingLeft=4;spacingRight=4;whiteSpace=wrap;overflow=hidden;rotatable=0;points=[];portConstraint=eastwest;part=1;" vertex="1" connectable="0" parent="TRPbkctfbiBFx2_AYb6S-311">
          <mxGeometry width="40" height="26" as="geometry" />
        </mxCell>
        <mxCell id="TRPbkctfbiBFx2_AYb6S-313" value="date_end&amp;nbsp; &amp;nbsp;date" style="shape=partialRectangle;top=0;left=0;right=0;bottom=0;html=1;align=left;verticalAlign=top;fillColor=none;spacingLeft=40;spacingRight=4;whiteSpace=wrap;overflow=hidden;rotatable=0;points=[[0,0.5],[1,0.5]];portConstraint=eastwest;dropTarget=0;" vertex="1" parent="TRPbkctfbiBFx2_AYb6S-304">
          <mxGeometry y="146" width="230" height="30" as="geometry" />
        </mxCell>
        <mxCell id="TRPbkctfbiBFx2_AYb6S-314" value="" style="shape=partialRectangle;top=0;left=0;bottom=0;html=1;fillColor=none;align=left;verticalAlign=top;spacingLeft=4;spacingRight=4;whiteSpace=wrap;overflow=hidden;rotatable=0;points=[];portConstraint=eastwest;part=1;" vertex="1" connectable="0" parent="TRPbkctfbiBFx2_AYb6S-313">
          <mxGeometry width="40" height="30" as="geometry" />
        </mxCell>
        <mxCell id="TRPbkctfbiBFx2_AYb6S-315" value="active bool" style="shape=partialRectangle;top=0;left=0;right=0;bottom=0;html=1;align=left;verticalAlign=top;fillColor=none;spacingLeft=40;spacingRight=4;whiteSpace=wrap;overflow=hidden;rotatable=0;points=[[0,0.5],[1,0.5]];portConstraint=eastwest;dropTarget=0;" vertex="1" parent="TRPbkctfbiBFx2_AYb6S-304">
          <mxGeometry y="176" width="230" height="26" as="geometry" />
        </mxCell>
        <mxCell id="TRPbkctfbiBFx2_AYb6S-316" value="" style="shape=partialRectangle;top=0;left=0;bottom=0;html=1;fillColor=none;align=left;verticalAlign=top;spacingLeft=4;spacingRight=4;whiteSpace=wrap;overflow=hidden;rotatable=0;points=[];portConstraint=eastwest;part=1;" vertex="1" connectable="0" parent="TRPbkctfbiBFx2_AYb6S-315">
          <mxGeometry width="40" height="26" as="geometry" />
        </mxCell>
        <mxCell id="TRPbkctfbiBFx2_AYb6S-397" style="edgeStyle=orthogonalEdgeStyle;rounded=0;orthogonalLoop=1;jettySize=auto;html=1;exitX=0;exitY=0.5;exitDx=0;exitDy=0;entryX=-0.016;entryY=0.113;entryDx=0;entryDy=0;entryPerimeter=0;" edge="1" parent="TRPbkctfbiBFx2_AYb6S-304" source="TRPbkctfbiBFx2_AYb6S-315" target="TRPbkctfbiBFx2_AYb6S-315">
          <mxGeometry relative="1" as="geometry" />
        </mxCell>
        <mxCell id="TRPbkctfbiBFx2_AYb6S-317" value="" style="edgeStyle=orthogonalEdgeStyle;fontSize=12;html=1;endArrow=ERoneToMany;startArrow=ERmandOne;rounded=0;exitX=1;exitY=0.5;exitDx=0;exitDy=0;entryX=0;entryY=0.5;entryDx=0;entryDy=0;" edge="1" parent="1" source="TRPbkctfbiBFx2_AYb6S-199" target="TRPbkctfbiBFx2_AYb6S-307">
          <mxGeometry width="100" height="100" relative="1" as="geometry">
            <mxPoint x="210" y="210" as="sourcePoint" />
            <mxPoint x="260" y="530" as="targetPoint" />
            <Array as="points">
              <mxPoint x="220" y="209" />
              <mxPoint x="220" y="260" />
              <mxPoint x="560" y="260" />
              <mxPoint x="560" y="375" />
            </Array>
          </mxGeometry>
        </mxCell>
        <mxCell id="TRPbkctfbiBFx2_AYb6S-319" value="" style="edgeStyle=orthogonalEdgeStyle;fontSize=12;html=1;endArrow=ERmandOne;startArrow=ERmandOne;rounded=0;exitX=1;exitY=0.5;exitDx=0;exitDy=0;entryX=0;entryY=0.5;entryDx=0;entryDy=0;" edge="1" parent="1" source="TRPbkctfbiBFx2_AYb6S-223" target="TRPbkctfbiBFx2_AYb6S-253">
          <mxGeometry width="100" height="100" relative="1" as="geometry">
            <mxPoint x="180" y="410" as="sourcePoint" />
            <mxPoint x="590" y="283" as="targetPoint" />
            <Array as="points">
              <mxPoint x="540" y="318" />
              <mxPoint x="540" y="186" />
            </Array>
          </mxGeometry>
        </mxCell>
        <mxCell id="TRPbkctfbiBFx2_AYb6S-322" value="" style="fontSize=12;html=1;endArrow=ERoneToMany;startArrow=ERmandOne;rounded=0;entryX=0;entryY=0.5;entryDx=0;entryDy=0;exitX=0;exitY=0.5;exitDx=0;exitDy=0;edgeStyle=orthogonalEdgeStyle;" edge="1" parent="1" source="TRPbkctfbiBFx2_AYb6S-244" target="TRPbkctfbiBFx2_AYb6S-225">
          <mxGeometry width="100" height="100" relative="1" as="geometry">
            <mxPoint x="280" y="480" as="sourcePoint" />
            <mxPoint x="250" y="640" as="targetPoint" />
            <Array as="points">
              <mxPoint x="240" y="173" />
              <mxPoint x="240" y="354" />
            </Array>
          </mxGeometry>
        </mxCell>
        <mxCell id="TRPbkctfbiBFx2_AYb6S-334" value="" style="edgeStyle=orthogonalEdgeStyle;fontSize=12;html=1;endArrow=ERoneToMany;startArrow=ERmandOne;rounded=0;entryX=0;entryY=0.5;entryDx=0;entryDy=0;exitX=1;exitY=0.5;exitDx=0;exitDy=0;" edge="1" parent="1" source="TRPbkctfbiBFx2_AYb6S-212">
          <mxGeometry width="100" height="100" relative="1" as="geometry">
            <mxPoint x="280" y="-185" as="sourcePoint" />
            <mxPoint x="585" y="-127.00000000000023" as="targetPoint" />
          </mxGeometry>
        </mxCell>
        <mxCell id="TRPbkctfbiBFx2_AYb6S-335" value="" style="edgeStyle=orthogonalEdgeStyle;fontSize=12;html=1;endArrow=ERoneToMany;startArrow=ERmandOne;rounded=0;entryX=0;entryY=0.5;entryDx=0;entryDy=0;elbow=vertical;exitX=1;exitY=0.5;exitDx=0;exitDy=0;" edge="1" parent="1" source="TRPbkctfbiBFx2_AYb6S-276">
          <mxGeometry width="100" height="100" relative="1" as="geometry">
            <mxPoint x="500" y="0.009999999999990905" as="sourcePoint" />
            <mxPoint x="585" y="-155" as="targetPoint" />
          </mxGeometry>
        </mxCell>
        <mxCell id="TRPbkctfbiBFx2_AYb6S-336" value="district" style="swimlane;html=1;fontStyle=0;childLayout=stackLayout;horizontal=1;startSize=26;fillColor=#e0e0e0;horizontalStack=0;resizeParent=1;resizeLast=0;collapsible=1;marginBottom=0;swimlaneFillColor=#ffffff;align=center;rounded=0;shadow=0;comic=0;labelBackgroundColor=none;strokeWidth=1;fontFamily=Verdana;fontSize=14" vertex="1" parent="1">
          <mxGeometry x="910" y="-62" width="190" height="97" as="geometry" />
        </mxCell>
        <mxCell id="TRPbkctfbiBFx2_AYb6S-337" value="&lt;b&gt;district_id&lt;/b&gt;&amp;nbsp;&lt;span style=&quot;font-weight: 400 ; font-size: 12px&quot;&gt;int&amp;nbsp;&lt;br&gt;&lt;/span&gt;&lt;span style=&quot;font-weight: 400&quot;&gt;unsigned incrimential&lt;/span&gt;" style="shape=partialRectangle;top=0;left=0;right=0;bottom=1;html=1;align=left;verticalAlign=top;fillColor=none;spacingLeft=34;spacingRight=4;whiteSpace=wrap;overflow=hidden;rotatable=0;points=[[0,0.5],[1,0.5]];portConstraint=eastwest;dropTarget=0;fontStyle=0;fontSize=12;" vertex="1" parent="TRPbkctfbiBFx2_AYb6S-336">
          <mxGeometry y="26" width="190" height="45" as="geometry" />
        </mxCell>
        <mxCell id="TRPbkctfbiBFx2_AYb6S-338" value="&lt;b&gt;PK&lt;/b&gt;" style="shape=partialRectangle;top=0;left=0;bottom=0;html=1;fillColor=none;align=left;verticalAlign=middle;spacingLeft=4;spacingRight=4;whiteSpace=wrap;overflow=hidden;rotatable=0;points=[];portConstraint=eastwest;part=1;" vertex="1" connectable="0" parent="TRPbkctfbiBFx2_AYb6S-337">
          <mxGeometry width="30" height="45" as="geometry" />
        </mxCell>
        <mxCell id="TRPbkctfbiBFx2_AYb6S-339" value="name varchar(35)" style="shape=partialRectangle;top=0;left=0;right=0;bottom=0;html=1;align=left;verticalAlign=top;fillColor=none;spacingLeft=34;spacingRight=4;whiteSpace=wrap;overflow=hidden;rotatable=0;points=[[0,0.5],[1,0.5]];portConstraint=eastwest;dropTarget=0;fontStyle=0;" vertex="1" parent="TRPbkctfbiBFx2_AYb6S-336">
          <mxGeometry y="71" width="190" height="26" as="geometry" />
        </mxCell>
        <mxCell id="TRPbkctfbiBFx2_AYb6S-340" value="" style="shape=partialRectangle;top=0;left=0;bottom=0;html=1;fillColor=none;align=left;verticalAlign=top;spacingLeft=4;spacingRight=4;whiteSpace=wrap;overflow=hidden;rotatable=0;points=[];portConstraint=eastwest;part=1;" vertex="1" connectable="0" parent="TRPbkctfbiBFx2_AYb6S-339">
          <mxGeometry width="30" height="26" as="geometry" />
        </mxCell>
        <mxCell id="TRPbkctfbiBFx2_AYb6S-341" value="street" style="swimlane;html=1;fontStyle=0;childLayout=stackLayout;horizontal=1;startSize=26;fillColor=#e0e0e0;horizontalStack=0;resizeParent=1;resizeLast=0;collapsible=1;marginBottom=0;swimlaneFillColor=#ffffff;align=center;rounded=0;shadow=0;comic=0;labelBackgroundColor=none;strokeWidth=1;fontFamily=Verdana;fontSize=14" vertex="1" parent="1">
          <mxGeometry x="850" y="-240" width="190" height="97" as="geometry" />
        </mxCell>
        <mxCell id="TRPbkctfbiBFx2_AYb6S-342" value="&lt;b&gt;street_id&lt;/b&gt;&amp;nbsp;&lt;span style=&quot;font-weight: 400 ; font-size: 12px&quot;&gt;int&amp;nbsp;&lt;br&gt;&lt;/span&gt;&lt;span style=&quot;font-weight: 400&quot;&gt;unsigned incrimential&lt;/span&gt;" style="shape=partialRectangle;top=0;left=0;right=0;bottom=1;html=1;align=left;verticalAlign=top;fillColor=none;spacingLeft=34;spacingRight=4;whiteSpace=wrap;overflow=hidden;rotatable=0;points=[[0,0.5],[1,0.5]];portConstraint=eastwest;dropTarget=0;fontStyle=0;fontSize=12;" vertex="1" parent="TRPbkctfbiBFx2_AYb6S-341">
          <mxGeometry y="26" width="190" height="45" as="geometry" />
        </mxCell>
        <mxCell id="TRPbkctfbiBFx2_AYb6S-343" value="&lt;b&gt;PK&lt;/b&gt;" style="shape=partialRectangle;top=0;left=0;bottom=0;html=1;fillColor=none;align=left;verticalAlign=middle;spacingLeft=4;spacingRight=4;whiteSpace=wrap;overflow=hidden;rotatable=0;points=[];portConstraint=eastwest;part=1;" vertex="1" connectable="0" parent="TRPbkctfbiBFx2_AYb6S-342">
          <mxGeometry width="30" height="45" as="geometry" />
        </mxCell>
        <mxCell id="TRPbkctfbiBFx2_AYb6S-344" value="name varchar(35)" style="shape=partialRectangle;top=0;left=0;right=0;bottom=0;html=1;align=left;verticalAlign=top;fillColor=none;spacingLeft=34;spacingRight=4;whiteSpace=wrap;overflow=hidden;rotatable=0;points=[[0,0.5],[1,0.5]];portConstraint=eastwest;dropTarget=0;fontStyle=0;" vertex="1" parent="TRPbkctfbiBFx2_AYb6S-341">
          <mxGeometry y="71" width="190" height="26" as="geometry" />
        </mxCell>
        <mxCell id="TRPbkctfbiBFx2_AYb6S-345" value="" style="shape=partialRectangle;top=0;left=0;bottom=0;html=1;fillColor=none;align=left;verticalAlign=top;spacingLeft=4;spacingRight=4;whiteSpace=wrap;overflow=hidden;rotatable=0;points=[];portConstraint=eastwest;part=1;" vertex="1" connectable="0" parent="TRPbkctfbiBFx2_AYb6S-344">
          <mxGeometry width="30" height="26" as="geometry" />
        </mxCell>
        <mxCell id="TRPbkctfbiBFx2_AYb6S-355" value="street_by_district" style="swimlane;html=1;fontStyle=0;childLayout=stackLayout;horizontal=1;startSize=26;fillColor=#e0e0e0;horizontalStack=0;resizeParent=1;resizeLast=0;collapsible=1;marginBottom=0;swimlaneFillColor=#ffffff;align=center;rounded=0;shadow=0;comic=0;labelBackgroundColor=none;strokeWidth=1;fontFamily=Verdana;fontSize=14" vertex="1" parent="1">
          <mxGeometry x="560" y="-40" width="250" height="138" as="geometry" />
        </mxCell>
        <mxCell id="TRPbkctfbiBFx2_AYb6S-356" value="&lt;span style=&quot;font-family: &amp;#34;verdana&amp;#34; ; text-align: center&quot;&gt;street_by_district_id&amp;nbsp;&lt;/span&gt;&lt;span style=&quot;font-weight: 400&quot;&gt;int usigned incrimental&lt;/span&gt;" style="shape=partialRectangle;top=0;left=0;right=0;bottom=1;html=1;align=left;verticalAlign=middle;fillColor=none;spacingLeft=60;spacingRight=4;whiteSpace=wrap;overflow=hidden;rotatable=0;points=[[0,0.5],[1,0.5]];portConstraint=eastwest;dropTarget=0;fontStyle=1;" vertex="1" parent="TRPbkctfbiBFx2_AYb6S-355">
          <mxGeometry y="26" width="250" height="30" as="geometry" />
        </mxCell>
        <mxCell id="TRPbkctfbiBFx2_AYb6S-357" value="PK" style="shape=partialRectangle;fontStyle=1;top=0;left=0;bottom=0;html=1;fillColor=none;align=left;verticalAlign=middle;spacingLeft=4;spacingRight=4;whiteSpace=wrap;overflow=hidden;rotatable=0;points=[];portConstraint=eastwest;part=1;" vertex="1" connectable="0" parent="TRPbkctfbiBFx2_AYb6S-356">
          <mxGeometry width="56" height="30" as="geometry" />
        </mxCell>
        <mxCell id="TRPbkctfbiBFx2_AYb6S-358" value="streeet_id int unsigned&amp;nbsp;" style="shape=partialRectangle;top=0;left=0;right=0;bottom=0;html=1;align=left;verticalAlign=middle;fillColor=none;spacingLeft=60;spacingRight=4;whiteSpace=wrap;overflow=hidden;rotatable=0;points=[[0,0.5],[1,0.5]];portConstraint=eastwest;dropTarget=0;fontStyle=0;" vertex="1" parent="TRPbkctfbiBFx2_AYb6S-355">
          <mxGeometry y="56" width="250" height="30" as="geometry" />
        </mxCell>
        <mxCell id="TRPbkctfbiBFx2_AYb6S-359" value="FK1" style="shape=partialRectangle;fontStyle=0;top=0;left=0;bottom=0;html=1;fillColor=none;align=left;verticalAlign=middle;spacingLeft=4;spacingRight=4;whiteSpace=wrap;overflow=hidden;rotatable=0;points=[];portConstraint=eastwest;part=1;" vertex="1" connectable="0" parent="TRPbkctfbiBFx2_AYb6S-358">
          <mxGeometry width="56" height="30" as="geometry" />
        </mxCell>
        <mxCell id="TRPbkctfbiBFx2_AYb6S-360" value="&lt;div style=&quot;text-align: center&quot;&gt;&lt;span&gt;&lt;font face=&quot;verdana&quot;&gt;district_by_city_id&amp;nbsp;&lt;/font&gt;int&amp;nbsp;unsigned&amp;nbsp;&lt;/span&gt;&lt;/div&gt;" style="shape=partialRectangle;top=0;left=0;right=0;bottom=0;html=1;align=left;verticalAlign=top;fillColor=none;spacingLeft=60;spacingRight=4;whiteSpace=wrap;overflow=hidden;rotatable=0;points=[[0,0.5],[1,0.5]];portConstraint=eastwest;dropTarget=0;" vertex="1" parent="TRPbkctfbiBFx2_AYb6S-355">
          <mxGeometry y="86" width="250" height="26" as="geometry" />
        </mxCell>
        <mxCell id="TRPbkctfbiBFx2_AYb6S-361" value="FK2" style="shape=partialRectangle;top=0;left=0;bottom=0;html=1;fillColor=none;align=left;verticalAlign=top;spacingLeft=4;spacingRight=4;whiteSpace=wrap;overflow=hidden;rotatable=0;points=[];portConstraint=eastwest;part=1;" vertex="1" connectable="0" parent="TRPbkctfbiBFx2_AYb6S-360">
          <mxGeometry width="56" height="26" as="geometry" />
        </mxCell>
        <mxCell id="TRPbkctfbiBFx2_AYb6S-362" value="&lt;span&gt;introduction varchar(255)&lt;/span&gt;" style="shape=partialRectangle;top=0;left=0;right=0;bottom=0;html=1;align=left;verticalAlign=top;fillColor=none;spacingLeft=60;spacingRight=4;whiteSpace=wrap;overflow=hidden;rotatable=0;points=[[0,0.5],[1,0.5]];portConstraint=eastwest;dropTarget=0;" vertex="1" parent="TRPbkctfbiBFx2_AYb6S-355">
          <mxGeometry y="112" width="250" height="26" as="geometry" />
        </mxCell>
        <mxCell id="TRPbkctfbiBFx2_AYb6S-363" value="" style="shape=partialRectangle;top=0;left=0;bottom=0;html=1;fillColor=none;align=left;verticalAlign=top;spacingLeft=4;spacingRight=4;whiteSpace=wrap;overflow=hidden;rotatable=0;points=[];portConstraint=eastwest;part=1;" vertex="1" connectable="0" parent="TRPbkctfbiBFx2_AYb6S-362">
          <mxGeometry width="56" height="26" as="geometry" />
        </mxCell>
        <mxCell id="TRPbkctfbiBFx2_AYb6S-377" value="" style="edgeStyle=orthogonalEdgeStyle;fontSize=12;html=1;endArrow=ERoneToMany;startArrow=ERmandOne;rounded=0;entryX=1;entryY=0.5;entryDx=0;entryDy=0;exitX=1;exitY=0.5;exitDx=0;exitDy=0;" edge="1" parent="1" source="TRPbkctfbiBFx2_AYb6S-251" target="TRPbkctfbiBFx2_AYb6S-309">
          <mxGeometry width="100" height="100" relative="1" as="geometry">
            <mxPoint x="810" y="561" as="sourcePoint" />
            <mxPoint x="889.9999999999995" y="387" as="targetPoint" />
            <Array as="points">
              <mxPoint x="850" y="156" />
              <mxPoint x="850" y="405" />
            </Array>
          </mxGeometry>
        </mxCell>
        <mxCell id="TRPbkctfbiBFx2_AYb6S-378" value="position_by_staff" style="swimlane;html=1;fontStyle=0;childLayout=stackLayout;horizontal=1;startSize=30;fillColor=#e0e0e0;horizontalStack=0;resizeParent=1;resizeLast=0;collapsible=1;marginBottom=0;swimlaneFillColor=#ffffff;align=center;rounded=0;shadow=0;comic=0;labelBackgroundColor=none;strokeWidth=1;fontFamily=Verdana;fontSize=14" vertex="1" parent="1">
          <mxGeometry x="-60" y="-80" width="250" height="238" as="geometry" />
        </mxCell>
        <mxCell id="TRPbkctfbiBFx2_AYb6S-379" value="position_by_staff_id&amp;nbsp;&lt;span style=&quot;font-weight: 400&quot;&gt;int&amp;nbsp;&lt;/span&gt;&lt;span style=&quot;font-weight: 400&quot;&gt;unsigned&lt;br&gt;&amp;nbsp;&lt;/span&gt;&lt;span style=&quot;font-weight: 400&quot;&gt;incrimental&amp;nbsp;&lt;/span&gt;" style="shape=partialRectangle;top=0;left=0;right=0;bottom=1;html=1;align=left;verticalAlign=middle;fillColor=none;spacingLeft=60;spacingRight=4;whiteSpace=wrap;overflow=hidden;rotatable=0;points=[[0,0.5],[1,0.5]];portConstraint=eastwest;dropTarget=0;fontStyle=1;" vertex="1" parent="TRPbkctfbiBFx2_AYb6S-378">
          <mxGeometry y="30" width="250" height="40" as="geometry" />
        </mxCell>
        <mxCell id="TRPbkctfbiBFx2_AYb6S-380" value="PK" style="shape=partialRectangle;top=0;left=0;bottom=0;html=1;fillColor=none;align=left;verticalAlign=middle;spacingLeft=4;spacingRight=4;whiteSpace=wrap;overflow=hidden;rotatable=0;points=[];portConstraint=eastwest;part=1;fontStyle=1" vertex="1" connectable="0" parent="TRPbkctfbiBFx2_AYb6S-379">
          <mxGeometry x="1" width="59" height="40" as="geometry" />
        </mxCell>
        <mxCell id="TRPbkctfbiBFx2_AYb6S-381" value="position_id&amp;nbsp;&amp;nbsp;int usigned&amp;nbsp;" style="shape=partialRectangle;top=0;left=0;right=0;bottom=0;html=1;align=left;verticalAlign=top;fillColor=none;spacingLeft=60;spacingRight=4;whiteSpace=wrap;overflow=hidden;rotatable=0;points=[[0,0.5],[1,0.5]];portConstraint=eastwest;dropTarget=0;" vertex="1" parent="TRPbkctfbiBFx2_AYb6S-378">
          <mxGeometry y="70" width="250" height="30" as="geometry" />
        </mxCell>
        <mxCell id="TRPbkctfbiBFx2_AYb6S-382" value="FK2" style="shape=partialRectangle;top=0;left=0;bottom=0;html=1;fillColor=none;align=left;verticalAlign=top;spacingLeft=4;spacingRight=4;whiteSpace=wrap;overflow=hidden;rotatable=0;points=[];portConstraint=eastwest;part=1;" vertex="1" connectable="0" parent="TRPbkctfbiBFx2_AYb6S-381">
          <mxGeometry width="60" height="29.999999999999993" as="geometry" />
        </mxCell>
        <mxCell id="TRPbkctfbiBFx2_AYb6S-383" value="&lt;span style=&quot;font-weight: normal&quot;&gt;staff_id&amp;nbsp;&amp;nbsp;&lt;/span&gt;&lt;span style=&quot;font-weight: 400&quot;&gt;int usigned&amp;nbsp;&lt;/span&gt;" style="shape=partialRectangle;top=0;left=0;right=0;bottom=0;html=1;align=left;verticalAlign=top;fillColor=none;spacingLeft=60;spacingRight=4;whiteSpace=wrap;overflow=hidden;rotatable=0;points=[[0,0.5],[1,0.5]];portConstraint=eastwest;dropTarget=0;fontStyle=1;" vertex="1" parent="TRPbkctfbiBFx2_AYb6S-378">
          <mxGeometry y="100" width="250" height="30" as="geometry" />
        </mxCell>
        <mxCell id="TRPbkctfbiBFx2_AYb6S-384" value="FK1" style="shape=partialRectangle;top=0;left=0;bottom=0;html=1;fillColor=none;align=left;verticalAlign=middle;spacingLeft=4;spacingRight=4;whiteSpace=wrap;overflow=hidden;rotatable=0;points=[];portConstraint=eastwest;part=1;" vertex="1" connectable="0" parent="TRPbkctfbiBFx2_AYb6S-383">
          <mxGeometry x="1" width="59" height="30" as="geometry" />
        </mxCell>
        <mxCell id="TRPbkctfbiBFx2_AYb6S-385" value="filial_id int unsigned&amp;nbsp;" style="shape=partialRectangle;top=0;left=0;right=0;bottom=0;html=1;align=left;verticalAlign=top;fillColor=none;spacingLeft=60;spacingRight=4;whiteSpace=wrap;overflow=hidden;rotatable=0;points=[[0,0.5],[1,0.5]];portConstraint=eastwest;dropTarget=0;" vertex="1" parent="TRPbkctfbiBFx2_AYb6S-378">
          <mxGeometry y="130" width="250" height="28" as="geometry" />
        </mxCell>
        <mxCell id="TRPbkctfbiBFx2_AYb6S-386" value="FK2" style="shape=partialRectangle;top=0;left=0;bottom=0;html=1;fillColor=none;align=left;verticalAlign=top;spacingLeft=4;spacingRight=4;whiteSpace=wrap;overflow=hidden;rotatable=0;points=[];portConstraint=eastwest;part=1;" vertex="1" connectable="0" parent="TRPbkctfbiBFx2_AYb6S-385">
          <mxGeometry width="60" height="28" as="geometry" />
        </mxCell>
        <mxCell id="TRPbkctfbiBFx2_AYb6S-387" value="date_start&amp;nbsp; date" style="shape=partialRectangle;top=0;left=0;right=0;bottom=0;html=1;align=left;verticalAlign=top;fillColor=none;spacingLeft=60;spacingRight=4;whiteSpace=wrap;overflow=hidden;rotatable=0;points=[[0,0.5],[1,0.5]];portConstraint=eastwest;dropTarget=0;" vertex="1" parent="TRPbkctfbiBFx2_AYb6S-378">
          <mxGeometry y="158" width="250" height="26" as="geometry" />
        </mxCell>
        <mxCell id="TRPbkctfbiBFx2_AYb6S-388" value="" style="shape=partialRectangle;top=0;left=0;bottom=0;html=1;fillColor=none;align=left;verticalAlign=top;spacingLeft=4;spacingRight=4;whiteSpace=wrap;overflow=hidden;rotatable=0;points=[];portConstraint=eastwest;part=1;" vertex="1" connectable="0" parent="TRPbkctfbiBFx2_AYb6S-387">
          <mxGeometry width="60" height="26" as="geometry" />
        </mxCell>
        <mxCell id="TRPbkctfbiBFx2_AYb6S-389" value="date_end&amp;nbsp; &amp;nbsp;date" style="shape=partialRectangle;top=0;left=0;right=0;bottom=0;html=1;align=left;verticalAlign=top;fillColor=none;spacingLeft=60;spacingRight=4;whiteSpace=wrap;overflow=hidden;rotatable=0;points=[[0,0.5],[1,0.5]];portConstraint=eastwest;dropTarget=0;" vertex="1" parent="TRPbkctfbiBFx2_AYb6S-378">
          <mxGeometry y="184" width="250" height="28" as="geometry" />
        </mxCell>
        <mxCell id="TRPbkctfbiBFx2_AYb6S-390" value="" style="shape=partialRectangle;top=0;left=0;bottom=0;html=1;fillColor=none;align=left;verticalAlign=top;spacingLeft=4;spacingRight=4;whiteSpace=wrap;overflow=hidden;rotatable=0;points=[];portConstraint=eastwest;part=1;" vertex="1" connectable="0" parent="TRPbkctfbiBFx2_AYb6S-389">
          <mxGeometry width="60" height="28" as="geometry" />
        </mxCell>
        <mxCell id="TRPbkctfbiBFx2_AYb6S-391" style="edgeStyle=orthogonalEdgeStyle;rounded=0;orthogonalLoop=1;jettySize=auto;html=1;exitX=1;exitY=0.5;exitDx=0;exitDy=0;entryX=0.96;entryY=0.5;entryDx=0;entryDy=0;entryPerimeter=0;fontSize=12;" edge="1" parent="TRPbkctfbiBFx2_AYb6S-378" source="TRPbkctfbiBFx2_AYb6S-389" target="TRPbkctfbiBFx2_AYb6S-389">
          <mxGeometry relative="1" as="geometry" />
        </mxCell>
        <mxCell id="TRPbkctfbiBFx2_AYb6S-392" value="active bool" style="shape=partialRectangle;top=0;left=0;right=0;bottom=0;html=1;align=left;verticalAlign=top;fillColor=none;spacingLeft=60;spacingRight=4;whiteSpace=wrap;overflow=hidden;rotatable=0;points=[[0,0.5],[1,0.5]];portConstraint=eastwest;dropTarget=0;" vertex="1" parent="TRPbkctfbiBFx2_AYb6S-378">
          <mxGeometry y="212" width="250" height="26" as="geometry" />
        </mxCell>
        <mxCell id="TRPbkctfbiBFx2_AYb6S-393" value="" style="shape=partialRectangle;top=0;left=0;bottom=0;html=1;fillColor=none;align=left;verticalAlign=top;spacingLeft=4;spacingRight=4;whiteSpace=wrap;overflow=hidden;rotatable=0;points=[];portConstraint=eastwest;part=1;" vertex="1" connectable="0" parent="TRPbkctfbiBFx2_AYb6S-392">
          <mxGeometry width="60" height="26" as="geometry" />
        </mxCell>
        <mxCell id="TRPbkctfbiBFx2_AYb6S-394" value="" style="edgeStyle=elbowEdgeStyle;fontSize=12;html=1;endArrow=ERoneToMany;startArrow=ERmandOne;rounded=0;exitX=1;exitY=0.5;exitDx=0;exitDy=0;entryX=1.004;entryY=0.733;entryDx=0;entryDy=0;entryPerimeter=0;" edge="1" parent="1" source="TRPbkctfbiBFx2_AYb6S-199" target="TRPbkctfbiBFx2_AYb6S-383">
          <mxGeometry width="100" height="100" relative="1" as="geometry">
            <mxPoint x="190" y="197.99" as="sourcePoint" />
            <mxPoint x="190" y="30" as="targetPoint" />
            <Array as="points">
              <mxPoint x="210" y="130" />
            </Array>
          </mxGeometry>
        </mxCell>
      </root>
    </mxGraphModel>
  </diagram>
</mxfile>
